<svg xmlns="http://www.w3.org/2000/svg" width="64" height="64" viewBox="0 0 64 64" version="1.1"><path d="M 22 17.694 C 19.322 18.651, 18 21.294, 18 25.691 C 18 28.061, 17.550 30, 17 30 C 16.450 30, 16 30.900, 16 32 C 16 33.100, 16.450 34, 17 34 C 17.550 34, 18 35.939, 18 38.309 C 18 44.187, 19.656 46.094, 25.311 46.732 C 29.594 47.214, 30 47.076, 30 45.130 C 30 43.373, 29.403 43, 26.593 43 L 23.185 43 22.843 37.500 C 22.654 34.475, 22.654 29.525, 22.843 26.500 L 23.185 21 26.593 21 C 29.333 21, 30 20.609, 30 19 C 30 17.394, 29.360 17.016, 26.750 17.079 C 24.962 17.122, 22.825 17.399, 22 17.694 M 34 18.870 C 34 20.627, 34.597 21, 37.407 21 L 40.815 21 41.157 26.500 C 41.346 29.525, 41.346 34.475, 41.157 37.500 L 40.815 43 37.407 43 C 34.597 43, 34 43.373, 34 45.130 C 34 47.076, 34.406 47.214, 38.689 46.732 C 44.344 46.094, 46 44.187, 46 38.309 C 46 35.939, 46.450 34, 47 34 C 47.550 34, 48 33.100, 48 32 C 48 30.900, 47.550 30, 47 30 C 46.450 30, 46 28.061, 46 25.691 C 46 19.813, 44.344 17.906, 38.689 17.268 C 34.406 16.786, 34 16.924, 34 18.870 M 28 28 C 26.900 29.100, 26 30.900, 26 32 C 26 34.576, 29.424 38, 32 38 C 34.576 38, 38 34.576, 38 32 C 38 30.900, 37.100 29.100, 36 28 C 34.900 26.900, 33.100 26, 32 26 C 30.900 26, 29.100 26.900, 28 28 M 29.389 30.430 C 28.393 33.025, 29.788 35.169, 32.246 34.820 C 33.898 34.585, 34.500 33.833, 34.500 32 C 34.500 30.167, 33.898 29.415, 32.246 29.180 C 30.893 28.988, 29.750 29.488, 29.389 30.430" stroke="none" fill="#fcfcfc" fill-rule="evenodd"/><path d="M 0 32.014 L 0 64.028 32.250 63.764 L 64.500 63.500 64.764 31.750 L 65.028 0 32.514 0 L 0 0 0 32.014 M 0.446 32.500 C 0.447 50.100, 0.583 57.159, 0.749 48.187 C 0.914 39.215, 0.914 24.815, 0.748 16.187 C 0.581 7.559, 0.446 14.900, 0.446 32.500 M 22 17.694 C 19.322 18.651, 18 21.294, 18 25.691 C 18 28.061, 17.550 30, 17 30 C 16.450 30, 16 30.900, 16 32 C 16 33.100, 16.450 34, 17 34 C 17.550 34, 18 35.939, 18 38.309 C 18 44.187, 19.656 46.094, 25.311 46.732 C 29.594 47.214, 30 47.076, 30 45.130 C 30 43.373, 29.403 43, 26.593 43 L 23.185 43 22.843 37.500 C 22.654 34.475, 22.654 29.525, 22.843 26.500 L 23.185 21 26.593 21 C 29.333 21, 30 20.609, 30 19 C 30 17.394, 29.360 17.016, 26.750 17.079 C 24.962 17.122, 22.825 17.399, 22 17.694 M 34 18.870 C 34 20.627, 34.597 21, 37.407 21 L 40.815 21 41.157 26.500 C 41.346 29.525, 41.346 34.475, 41.157 37.500 L 40.815 43 37.407 43 C 34.597 43, 34 43.373, 34 45.130 C 34 47.076, 34.406 47.214, 38.689 46.732 C 44.344 46.094, 46 44.187, 46 38.309 C 46 35.939, 46.450 34, 47 34 C 47.550 34, 48 33.100, 48 32 C 48 30.900, 47.550 30, 47 30 C 46.450 30, 46 28.061, 46 25.691 C 46 19.813, 44.344 17.906, 38.689 17.268 C 34.406 16.786, 34 16.924, 34 18.870 M 28 28 C 26.900 29.100, 26 30.900, 26 32 C 26 34.576, 29.424 38, 32 38 C 34.576 38, 38 34.576, 38 32 C 38 30.900, 37.100 29.100, 36 28 C 34.900 26.900, 33.100 26, 32 26 C 30.900 26, 29.100 26.900, 28 28 M 29.389 30.430 C 28.393 33.025, 29.788 35.169, 32.246 34.820 C 33.898 34.585, 34.500 33.833, 34.500 32 C 34.500 30.167, 33.898 29.415, 32.246 29.180 C 30.893 28.988, 29.750 29.488, 29.389 30.430" stroke="none" fill="#040404" fill-rule="evenodd"/></svg>